<svg xmlns="http://www.w3.org/2000/svg" width="81.229" height="54" viewBox="0 0 81.229 54">
  <g id="Groupe_14" data-name="Groupe 14" transform="translate(-328 -44)">
    <circle id="Ellipse_12" data-name="Ellipse 12" cx="27" cy="27" r="27" transform="translate(328 44)" fill="#bfaa8e" opacity="0.17"/>
    <g id="flat" transform="translate(334.958 29)">
      <path id="Tracé_80" data-name="Tracé 80" d="M55.839,35l-2.458,3.686H3L7.915,50.975H64.441l9.831-11.059V35Z" transform="translate(0 4.576)" fill="#28333a"/>
      <path id="Tracé_81" data-name="Tracé 81" d="M55,38h2.458v2.458H55Z" transform="translate(11.899 5.263)" fill="#f4f4e6"/>
      <path id="Tracé_82" data-name="Tracé 82" d="M51,38h2.458v2.458H51Z" transform="translate(10.983 5.263)" fill="#f4f4e6"/>
      <path id="Tracé_83" data-name="Tracé 83" d="M47,38h2.458v2.458H47Z" transform="translate(10.068 5.263)" fill="#f4f4e6"/>
      <path id="Tracé_84" data-name="Tracé 84" d="M5.4,44l1.966,4.915H63.892L68.261,44Z" transform="translate(0.549 6.636)" fill="#626a6f"/>
      <path id="Tracé_85" data-name="Tracé 85" d="M5,32H19.746v7.373H5Z" transform="translate(0.458 3.89)" fill="#94836c"/>
      <path id="Tracé_86" data-name="Tracé 86" d="M17,32H31.746v7.373H17Z" transform="translate(3.203 3.89)" fill="#746857"/>
      <path id="Tracé_87" data-name="Tracé 87" d="M29,32H43.746v7.373H29Z" transform="translate(5.949 3.89)" fill="#94836c"/>
      <path id="Tracé_88" data-name="Tracé 88" d="M19,20H33.746v7.373H19Z" transform="translate(3.661 1.144)" fill="#746857"/>
      <path id="Tracé_89" data-name="Tracé 89" d="M7,20H21.746v7.373H7Z" transform="translate(0.915 1.144)" fill="#94836c"/>
      <path id="Tracé_90" data-name="Tracé 90" d="M7,26H21.746v7.373H7Z" transform="translate(0.915 2.517)" fill="#746857"/>
      <path id="Tracé_91" data-name="Tracé 91" d="M19,26H33.746v7.373H19Z" transform="translate(3.661 2.517)" fill="#94836c"/>
      <g id="Groupe_6" data-name="Groupe 6" transform="translate(9.144 21.144)">
        <path id="Tracé_93" data-name="Tracé 93" d="M14,20h2.458v3.686H14Z" transform="translate(-8.543 -20)" fill="#bfaa8e"/>
        <path id="Tracé_94" data-name="Tracé 94" d="M10,29h2.458v3.686H10Z" transform="translate(-4.542 -21.627)" fill="#bfaa8e"/>
        <path id="Tracé_97" data-name="Tracé 97" d="M26,20h2.458v3.686H26Z" transform="translate(-5.796 -20)" fill="#bfaa8e"/>
        <path id="Tracé_98" data-name="Tracé 98" d="M22,26h2.458v3.686H22Z" transform="translate(-1.797 -18.627)" fill="#bfaa8e"/>
        <path id="Tracé_102" data-name="Tracé 102" d="M20,32h2.458v3.686H20Z" transform="translate(-3.254 -17.254)" fill="#bfaa8e"/>
        <path id="Tracé_105" data-name="Tracé 105" d="M36,32h2.458v3.686H36Z" transform="translate(-3.593 -17.254)" fill="#bfaa8e"/>
      </g>
      <path id="Tracé_106" data-name="Tracé 106" d="M49,31h9.831v4.915H49Z" transform="translate(10.526 3.661)" fill="#626a6f"/>
      <path id="Tracé_107" data-name="Tracé 107" d="M51,23h2.458a2.458,2.458,0,0,1,2.458,2.458v7.373H51Z" transform="translate(10.983 1.831)" fill="#28333a"/>
      <path id="Tracé_108" data-name="Tracé 108" d="M43.915,15H39v4.915h3.686L53.746,30.975V24.831Z" transform="translate(8.237 0)" fill="#28333a"/>
      <path id="Tracé_109" data-name="Tracé 109" d="M40.686,31.288A3.686,3.686,0,0,1,37,27.6h2.458a1.229,1.229,0,1,0,1.229-1.229,1.229,1.229,0,0,1-1.229-1.229V19h2.458v5.125a3.686,3.686,0,0,1-1.229,7.163Z" transform="translate(7.78 0.915)" fill="#ccc"/>
      <path id="Tracé_159" data-name="Tracé 159" d="M12,32h2.458v3.686H12Z" transform="translate(-0.254 3.89)" fill="#bfaa8e"/>
    </g>
  </g>
</svg>
