<svg xmlns="http://www.w3.org/2000/svg" width="54" height="57.716" viewBox="0 0 54 57.716">
  <g id="Groupe_57" data-name="Groupe 57" transform="translate(-132 -40.284)">
    <circle id="Ellipse_10" data-name="Ellipse 10" cx="27" cy="27" r="27" transform="translate(132 44)" fill="#bfaa8e" opacity="0.17"/>
    <g id="world" transform="translate(137.969 40.284)">
      <circle id="Ellipse_16" data-name="Ellipse 16" cx="21.472" cy="21.472" r="21.472" transform="translate(5.087 1.76)" fill="#28333a"/>
      <path id="Tracé_174" data-name="Tracé 174" d="M40.766,80.965a21.473,21.473,0,0,1-11.96-39.307A21.475,21.475,0,1,0,49.558,79.087,21.4,21.4,0,0,1,40.766,80.965Z" transform="translate(-11.039 -38.021)" fill="#28333a"/>
      <g id="Groupe_29" data-name="Groupe 29" transform="translate(10.094 3.641)">
        <path id="Tracé_175" data-name="Tracé 175" d="M166.092,470.393l-3.113,1.784a21.495,21.495,0,0,0,20.607-1.821,21.523,21.523,0,0,1-17.494.037Z" transform="translate(-155.164 -432.929)" fill="#28333a"/>
        <path id="Tracé_176" data-name="Tracé 176" d="M81.139,41.7a21.544,21.544,0,0,0-7.667,5.81L74.6,48.64A21.579,21.579,0,0,1,81.139,41.7Z" transform="translate(-73.472 -41.703)" fill="#626a6f"/>
      </g>
      <path id="Tracé_177" data-name="Tracé 177" d="M120.3,52.4,108.88,49.681a57.015,57.015,0,0,1-1.789-6.263c0-.895,4.473-6.263,4.473-6.263L122.45,36.01A21.485,21.485,0,0,0,92.925,22.038a21.581,21.581,0,0,0-6.54,6.937L89.2,31.788l7.157.895,5.368,4.5.895,5.337.895,5.368-3.27,9.286L96.186,59.5a21.523,21.523,0,0,0,17.494-.037A21.585,21.585,0,0,0,120.3,52.4Z" transform="translate(-75.163 -18.397)" fill="#626a6f"/>
      <path id="Tracé_178" data-name="Tracé 178" d="M19.293,231.123c0-.476.017-.947.048-1.416l-3.017.251a21.484,21.484,0,0,0,8.624,20.275l2.726-2.091A21.435,21.435,0,0,1,19.293,231.123Z" transform="translate(-11.038 -209.651)" fill="#28333a"/>
      <path id="Tracé_179" data-name="Tracé 179" d="M63.378,241.792l1.792-5.429a.7.7,0,0,0-.306-.824l-3.8-2.28a.7.7,0,0,1-.281-.318l-3.488-7.849-4.836.4c-.03.468-.047.94-.047,1.416a21.435,21.435,0,0,0,8.381,17.019l2.347-1.8A.705.705,0,0,0,63.378,241.792Z" transform="translate(-44.155 -205.439)" fill="#626a6f"/>
      <path id="Tracé_180" data-name="Tracé 180" d="M260.32,266.079a6.343,6.343,0,0,0-6.336,6.336c0,4.464,5.6,10.115,5.838,10.354a.711.711,0,0,0,1,0c.238-.238,5.838-5.89,5.838-10.354A6.343,6.343,0,0,0,260.32,266.079Z" transform="translate(-228.129 -242.847)" fill="#bfb5a5"/>
      <path id="Tracé_181" data-name="Tracé 181" d="M256.1,272.4a6.341,6.341,0,0,1,3.316-5.569,6.345,6.345,0,0,0-5.428,6.27c0,4.464,5.6,10.115,5.838,10.354a.711.711,0,0,0,1,0c.055-.055.393-.4.881-.943C260.6,281.362,256.1,276.407,256.1,272.4Z" transform="translate(-228.129 -243.538)" fill="#a59d90"/>
      <path id="Tracé_182" data-name="Tracé 182" d="M289.756,298.331a3.52,3.52,0,1,0,3.52,3.52A3.524,3.524,0,0,0,289.756,298.331Z" transform="translate(-257.565 -272.283)" fill="#746857"/>
      <path id="Tracé_183" data-name="Tracé 183" d="M324.824,0a6.343,6.343,0,0,0-6.336,6.336c0,4.464,5.6,10.115,5.838,10.354a.711.711,0,0,0,1,0c.238-.238,5.838-5.89,5.838-10.354A6.343,6.343,0,0,0,324.824,0Z" transform="translate(-287.001)" fill="#bfb5a5"/>
      <path id="Tracé_184" data-name="Tracé 184" d="M320.6,6.326A6.341,6.341,0,0,1,323.916.757a6.345,6.345,0,0,0-5.428,6.27c0,4.464,5.6,10.115,5.838,10.354a.711.711,0,0,0,1,0c.055-.055.393-.4.881-.943C325.1,15.283,320.6,10.328,320.6,6.326Z" transform="translate(-287.001 -0.691)" fill="#a59d90"/>
      <path id="Tracé_185" data-name="Tracé 185" d="M354.26,32.252a3.52,3.52,0,1,0,3.52,3.52A3.524,3.524,0,0,0,354.26,32.252Z" transform="translate(-316.437 -29.436)" fill="#746857"/>
      <path id="Tracé_186" data-name="Tracé 186" d="M10.367,104.819a6.343,6.343,0,0,0-6.336,6.336c0,4.464,5.6,10.115,5.838,10.354a.711.711,0,0,0,1,0c.238-.238,5.838-5.89,5.838-10.354A6.343,6.343,0,0,0,10.367,104.819Z" transform="translate(0 -95.667)" fill="#bfb5a5"/>
      <path id="Tracé_187" data-name="Tracé 187" d="M6.143,111.145a6.341,6.341,0,0,1,3.316-5.569,6.345,6.345,0,0,0-5.428,6.27c0,4.464,5.6,10.115,5.838,10.354a.711.711,0,0,0,1,0c.055-.055.393-.4.882-.943C10.643,120.1,6.143,115.147,6.143,111.145Z" transform="translate(0 -96.358)" fill="#a59d90"/>
      <path id="Tracé_188" data-name="Tracé 188" d="M39.8,137.071a3.52,3.52,0,1,0,3.52,3.52A3.524,3.524,0,0,0,39.8,137.071Z" transform="translate(-29.436 -125.103)" fill="#746857"/>
    </g>
  </g>
</svg>
