<svg xmlns="http://www.w3.org/2000/svg" width="68.09" height="62" viewBox="0 0 68.09 62">
  <g id="Groupe_56" data-name="Groupe 56" transform="translate(-249 -36)">
    <circle id="Ellipse_11" data-name="Ellipse 11" cx="27" cy="27" r="27" transform="translate(249 44)" fill="#bfaa8e" opacity="0.17"/>
    <g id="delivery-truck" transform="translate(245 34.721)">
      <g id="Groupe_37" data-name="Groupe 37" transform="translate(15.711 10.843)">
        <g id="Groupe_36" data-name="Groupe 36">
          <g id="Groupe_55" data-name="Groupe 55">
            <g id="Groupe_31" data-name="Groupe 31" transform="translate(33.932 29.915)">
              <g id="Groupe_30" data-name="Groupe 30">
                <path id="Tracé_190" data-name="Tracé 190" d="M308,336.88v3.734h7.25a5.574,5.574,0,0,1,3.268-3.734Z" transform="translate(-308 -336.88)" fill="#626a6f"/>
              </g>
              <path id="Tracé_191" data-name="Tracé 191" d="M423.051,336.88h-9.162a5.573,5.573,0,0,1,3.268,3.734h4.964a1.227,1.227,0,0,0,1.227-1.227V337Z" transform="translate(-400.9 -336.88)" fill="#626a6f"/>
            </g>
            <path id="Tracé_192" data-name="Tracé 192" d="M344.372,194.823h2.237l.093-.123v-1.877a3.062,3.062,0,0,0-.131-.883l-.172-.123h-16a.491.491,0,0,1-.491-.491v-6.992a.491.491,0,0,1,.491-.491h11.078l.068-.123-.98-1.562a1.226,1.226,0,0,0-1.039-.574H326.529v19.171h6.233a5.541,5.541,0,0,1,4.761,0h9.18v-1.764l-.066-.123h-2.265a.491.491,0,0,1-.491-.491v-3.067A.491.491,0,0,1,344.372,194.823Z" transform="translate(-290.324 -170.72)" fill="#626a6f"/>
            <path id="Tracé_193" data-name="Tracé 193" d="M356.133,199.176l-.123-.176H353.68a.613.613,0,0,0-.613.613V206.6a.613.613,0,0,0,.613.613h2.331l.123-.217Z" transform="translate(-313.607 -185.998)" fill="#626a6f"/>
            <path id="Tracé_194" data-name="Tracé 194" d="M73.887,93H47.3a1.227,1.227,0,0,0-1.227,1.227v18.522H63.508a.491.491,0,0,1,.491.491v5.179H77.71a.491.491,0,0,1,.491.491v4.129h2.4v-23.1A9.292,9.292,0,0,1,73.887,93Z" transform="translate(-44.269 -93)" fill="#28333a"/>
            <circle id="Ellipse_22" data-name="Ellipse 22" cx="5.239" cy="5.239" r="5.239" transform="translate(40.123 28.843)" fill="#28333a"/>
            <g id="Groupe_33" data-name="Groupe 33" transform="translate(8.247 7.114)">
              <g id="Groupe_32" data-name="Groupe 32">
                <path id="Tracé_196" data-name="Tracé 196" d="M119.012,159.2H99.828a1.227,1.227,0,0,1-1.227-1.227v-5.75A1.227,1.227,0,0,1,99.828,151h19.184a1.227,1.227,0,0,1,1.227,1.227v5.75A1.227,1.227,0,0,1,119.012,159.2Z" transform="translate(-98.601 -151)" fill="#626a6f"/>
              </g>
            </g>
            <circle id="Ellipse_23" data-name="Ellipse 23" cx="1.787" cy="1.787" r="1.787" transform="translate(43.575 32.296)" fill="#b3b3b3"/>
            <path id="Tracé_218" data-name="Tracé 218" d="M.3,0H4.162a.3.3,0,0,1,.3.3V17.245a.3.3,0,0,1-.3.3H.3a.3.3,0,0,1-.3-.3V.3A.3.3,0,0,1,.3,0Z" transform="translate(0 21.804)" fill="#94836c"/>
          </g>
        </g>
      </g>
      <g id="Groupe_43" data-name="Groupe 43" transform="translate(44.729 1.279)">
        <g id="Groupe_40" data-name="Groupe 40" transform="translate(0 0)">
          <g id="Groupe_39" data-name="Groupe 39">
            <circle id="Ellipse_24" data-name="Ellipse 24" cx="8.588" cy="8.588" r="8.588" fill="#94836c"/>
            <circle id="Ellipse_20" data-name="Ellipse 20" cx="6.493" cy="6.493" r="6.493" transform="translate(2.096 2.096)" fill="#ebe6e0"/>
          </g>
        </g>
        <g id="Groupe_41" data-name="Groupe 41" transform="translate(4.437 4.363)">
          <path id="Tracé_203" data-name="Tracé 203" d="M320.183,47.233h-3.411a.92.92,0,0,1-.665-.284l-3.194-3.343a.92.92,0,1,1,1.33-1.271l2.922,3.059h3.018a.92.92,0,0,1,0,1.84Z" transform="translate(-312.658 -42.05)" fill="#94836c"/>
        </g>
        <g id="Groupe_42" data-name="Groupe 42" transform="translate(7.007 7.007)">
          <circle id="Ellipse_21" data-name="Ellipse 21" cx="1.581" cy="1.581" r="1.581" fill="#746857"/>
        </g>
      </g>
      <g id="Groupe_45" data-name="Groupe 45" transform="translate(35.441 36.138)">
        <path id="Tracé_204" data-name="Tracé 204" d="M205.931,299.22H192.22v14.052h14.324V299.833A.613.613,0,0,0,205.931,299.22Z" transform="translate(-192.22 -299.22)" fill="#746857"/>
        <g id="Groupe_44" data-name="Groupe 44" transform="translate(5.261 0)">
          <path id="Tracé_206" data-name="Tracé 206" d="M238.422,304.042h-2.7a.613.613,0,0,1-.613-.613V299.22h3.925v4.208A.613.613,0,0,1,238.422,304.042Z" transform="translate(-235.11 -299.22)" fill="#bfaa8e"/>
        </g>
        <path id="Tracé_207" data-name="Tracé 207" d="M236.691,303.428V299.22H235.11v4.208a.613.613,0,0,0,.613.613H237.3A.613.613,0,0,1,236.691,303.428Z" transform="translate(-229.849 -299.22)" fill="#bfaa8e"/>
      </g>
      <g id="Groupe_47" data-name="Groupe 47" transform="translate(58.114 23.845)">
        <path id="Tracé_209" data-name="Tracé 209" d="M390.573,206.471,385.882,199h-8.815v8.218h13.844A3.064,3.064,0,0,0,390.573,206.471Z" transform="translate(-377.067 -199)" fill="#ccc"/>
      </g>
      <g id="Groupe_51" data-name="Groupe 51" transform="translate(15.692 30.467)">
        <g id="Groupe_48" data-name="Groupe 48">
          <path id="Tracé_211" data-name="Tracé 211" d="M51.091,253.613a.613.613,0,0,0-.613-.613H31.833a.613.613,0,0,0-.613.613v13.073a30.033,30.033,0,0,0,3.418,5.913l.481.123H51.091Z" transform="translate(-31.22 -253)" fill="#94836c"/>
        </g>
        <g id="Groupe_50" data-name="Groupe 50" transform="translate(7.482)">
          <path id="Tracé_213" data-name="Tracé 213" d="M96.513,259.746h-3.68a.613.613,0,0,1-.613-.613V253h4.906v6.133A.613.613,0,0,1,96.513,259.746Z" transform="translate(-92.22 -253)" fill="#bfaa8e"/>
        </g>
        <path id="Tracé_214" data-name="Tracé 214" d="M94.033,259.133V253H92.22v6.133a.613.613,0,0,0,.613.613h1.813A.613.613,0,0,1,94.033,259.133Z" transform="translate(-84.738 -253)" fill="#94836c"/>
      </g>
      <g id="Groupe_54" data-name="Groupe 54" transform="translate(69.145 34.823)">
        <path id="Tracé_217" data-name="Tracé 217" d="M469.944,288.5h-2.331a.613.613,0,0,0-.613.613v3.066a.613.613,0,0,0,.613.613h2.331Z" transform="translate(-467 -288.5)" fill="#28333a"/>
      </g>
    </g>
  </g>
</svg>
